Coordinates
version=1
nRows=26
nColumns=24
inDegrees=yes

Units are S.I. units (second, meters, Newtons, ...)
Angles are in degrees.

endheader
time	pelvis_tilt	pelvis_list	pelvis_rotation	pelvis_tx	pelvis_ty	pelvis_tz	hip_flexion_r	hip_adduction_r	hip_rotation_r	knee_angle_r	ankle_angle_r	subtalar_angle_r	mtp_angle_r	hip_flexion_l	hip_adduction_l	hip_rotation_l	knee_angle_l	ankle_angle_l	subtalar_angle_l	mtp_angle_l	lumbar_extension	lumbar_bending	lumbar_rotation
      4.85500000	     -2.35730486	      9.31339122	     -5.01779291	      0.32778612	      1.01665723	     -0.20051448	      9.23309597	    -13.80234733	     -4.34879497	    -63.74862142	    -12.74158243	     -4.41064215	      0.00000000	     16.26847115	     11.49210965	     -6.00066842	    -15.84684938	      9.01905649	     -9.97058850	      0.00000000	     -7.68011479	    -11.82929887	      1.91432511
      4.86000000	     -2.27969645	      9.35887450	     -4.94907963	      0.33405109	      1.01733621	     -0.20108895	      9.93850169	    -13.83962494	     -4.35408716	    -64.61106864	    -11.56133871	     -4.22860485	      0.00000000	     15.65726348	     11.67018757	     -5.78112552	    -15.56962764	      9.26869151	     -9.99559415	      0.00000000	     -7.75135605	    -11.83514317	      1.64198524
      4.86500000	     -2.20666501	      9.38321757	     -4.88110611	      0.34025049	      1.01802672	     -0.20168838	     10.64428329	    -13.84917201	     -4.36160731	    -65.40803312	    -10.19573574	     -3.91531366	      0.00000000	     15.03983113	     11.83414322	     -5.50097411	    -15.26505634	      9.43868879	    -10.13559035	      0.00000000	     -7.82834559	    -11.80708264	      1.38968339
      4.87000000	     -2.13652377	      9.38416953	     -4.79931999	      0.34641692	      1.01873587	     -0.20232641	     11.33901674	    -13.83637454	     -4.40292919	    -66.12835951	     -8.73243147	     -3.53884851	      0.00000000	     14.41318207	     11.97949439	     -5.18182973	    -14.94100692	      9.57377300	    -10.31401381	      0.00000000	     -7.90441591	    -11.74911466	      1.12675719
      4.87500000	     -2.05056081	      9.41162169	     -4.70854362	      0.35261923	      1.01946139	     -0.20304223	     12.00734525	    -13.86979552	     -4.48657265	    -66.77743771	     -7.21310520	     -3.13965075	      0.00000000	     13.74191480	     12.17194842	     -4.75497546	    -14.55762774	      9.57864430	    -10.68793181	      0.00000000	     -7.99057070	    -11.70916921	      0.86993157
      4.88000000	     -1.98467060	      9.35575217	     -4.57860886	      0.35875308	      1.02021077	     -0.20371547	     12.66093851	    -13.80057029	     -4.61401668	    -67.33524987	     -5.68109942	     -2.69441345	      0.00000000	     13.10716819	     12.26048305	     -4.40551251	    -14.22949295	      9.68702645	    -10.87156443	      0.00000000	     -8.07350936	    -11.57607185	      0.57927147
      4.88500000	     -1.92697620	      9.27119522	     -4.45524436	      0.36489198	      1.02095523	     -0.20439174	     13.31358352	    -13.69645848	     -4.74479935	    -67.81872940	     -4.19800742	     -2.24274905	      0.00000000	     12.46557991	     12.31573414	     -4.03448640	    -13.87935385	      9.80456605	    -11.06798191	      0.00000000	     -8.14066977	    -11.40379693	      0.28727810
      4.89000000	     -1.84071410	      9.21438410	     -4.31620997	      0.37105716	      1.02174921	     -0.20513809	     13.92039100	    -13.63955269	     -4.91968677	    -68.22537859	     -2.77115427	     -1.83898831	      0.00000000	     11.75057252	     12.41799622	     -3.48095826	    -13.44677294	      9.75071045	    -11.45725769	      0.00000000	     -8.23976069	    -11.26104163	     -0.00520457
      4.89500000	     -1.78645514	      9.11096222	     -4.15449127	      0.37720147	      1.02251758	     -0.20583143	     14.53602325	    -13.52296906	     -5.12184550	    -68.55425993	     -1.41545425	     -1.43676582	      0.00000000	     11.09859403	     12.44553410	     -3.11316090	    -13.08167796	      9.81635771	    -11.61966481	      0.00000000	     -8.30010619	    -11.06687668	     -0.31391348
      4.90000000	     -1.74470203	      8.95986993	     -4.02858712	      0.38325579	      1.02325872	     -0.20645787	     15.17303466	    -13.33119386	     -5.28287056	    -68.82078348	     -0.18694395	     -1.07601763	      0.00000000	     10.45331768	     12.40932680	     -2.70717873	    -12.70394406	      9.91886328	    -11.77902381	      0.00000000	     -8.36025624	    -10.82064579	     -0.58529143
      4.90500000	     -1.64364537	      8.87865351	     -3.82310890	      0.38946837	      1.02405592	     -0.20732720	     15.70011935	    -13.27873481	     -5.58217721	    -69.00766665	      0.97037255	     -0.78508285	      0.00000000	      9.68415709	     12.48590105	     -2.08899271	    -12.22154000	      9.80901472	    -12.21464460	      0.00000000	     -8.46899142	    -10.63393737	     -0.93476453
      4.91000000	     -1.56672299	      8.72752690	     -3.65265157	      0.39558759	      1.02483460	     -0.20805553	     16.24890279	    -13.11568556	     -5.83755404	    -69.12164641	      2.02535581	     -0.51616562	      0.00000000	      8.96286803	     12.45627325	     -1.60654442	    -11.78068003	      9.80578898	    -12.47366365	      0.00000000	     -8.56090079	    -10.37639716	     -1.23274825
      4.91500000	     -1.53980251	      8.53067076	     -3.53374250	      0.40161381	      1.02553444	     -0.20862422	     16.86037252	    -12.86195742	     -6.02927893	    -69.17377351	      2.98457468	     -0.28354087	      0.00000000	      8.32082179	     12.34572968	     -1.27150013	    -11.37637831	      9.89467199	    -12.58807565	      0.00000000	     -8.59898367	    -10.08031910	     -1.45570336
      4.92000000	     -1.42723709	      8.39288095	     -3.28950774	      0.40777752	      1.02634610	     -0.20949835	     17.31215189	    -12.75159444	     -6.39870366	    -69.13987710	      3.90704204	     -0.07388267	      0.00000000	      7.51960528	     12.33991316	     -0.63645631	    -10.86835113	      9.73745847	    -12.99895806	      0.00000000	     -8.73267179	     -9.82541421	     -1.83634797
      4.92500000	     -1.39598866	      8.18362609	     -3.19486294	      0.41379633	      1.02698558	     -0.21003481	     17.89973741	    -12.47608549	     -6.58743858	    -69.06320091	      4.74013566	      0.11291035	      0.00000000	      6.85926164	     12.20305738	     -0.30494567	    -10.43121108	      9.82813344	    -13.13089417	      0.00000000	     -8.76665750	     -9.51509705	     -2.02518324
      4.93000000	     -1.24277310	      8.02015624	     -2.95210906	      0.41994953	      1.02780131	     -0.21088495	     18.27406650	    -12.33570173	     -6.97582108	    -68.89100449	      5.55904552	      0.28658533	      0.00000000	      5.98960949	     12.15596963	      0.39182962	     -9.87708229	      9.63451502	    -13.60144082	      0.00000000	     -8.94773641	     -9.23137881	     -2.39090346
      4.93500000	     -1.14236652	      7.81845176	     -2.79273464	      0.42601567	      1.02850955	     -0.21153304	     18.72179569	    -12.09852020	     -7.25413338	    -68.66139098	      6.36029189	      0.49116187	      0.00000000	      5.21255681	     12.03332470	      0.87124857	     -9.36714264	      9.56241226	    -13.89833188	      0.00000000	     -9.06126660	     -8.92083231	     -2.65230057
      4.94000000	     -1.06483680	      7.61050481	     -2.62787354	      0.43207602	      1.02916322	     -0.21216716	     19.17705090	    -11.84805872	     -7.53180894	    -68.36668837	      7.14689812	      0.72354888	      0.00000000	      4.46519190	     11.89463565	      1.29088473	     -8.85981200	      9.48600256	    -14.17262320	      0.00000000	     -9.14690169	     -8.59938533	     -2.93587525
      4.94500000	     -0.95220307	      7.40546482	     -2.46884899	      0.43808977	      1.02982007	     -0.21275962	     19.58020568	    -11.59267683	     -7.80812956	    -68.00108763	      7.94024352	      0.93778989	      0.00000000	      3.66506549	     11.75025928	      1.82449240	     -8.32426467	      9.36499393	    -14.50398066	      0.00000000	     -9.28024343	     -8.29630153	     -3.16286666
      4.95000000	     -0.85301932	      7.19790853	     -2.32022308	      0.44412576	      1.03041093	     -0.21332767	     19.98320794	    -11.32386323	     -8.06247550	    -67.57187240	      8.72992624	      1.19596505	      0.00000000	      2.88114546	     11.59406350	      2.28047337	     -7.78454195	      9.26747325	    -14.81265316	      0.00000000	     -9.38742990	     -7.98600065	     -3.39767141
      4.95500000	     -0.75565763	      6.98702555	     -2.17565488	      0.45013403	      1.03097054	     -0.21385144	     20.37049022	    -11.03779225	     -8.30167240	    -67.07034109	      9.52277403	      1.47833617	      0.00000000	      2.09940709	     11.42391034	      2.71960901	     -7.23756813	      9.14885053	    -15.11704570	      0.00000000	     -9.49378089	     -7.67728326	     -3.62228094
      4.96000000	     -0.67445543	      6.78321739	     -2.01844807	      0.45610752	      1.03147785	     -0.21435447	     20.75564745	    -10.75018843	     -8.52892002	    -66.50131252	     10.32323022	      1.80819605	      0.00000000	      1.34357251	     11.25085421	      3.11608472	     -6.69948163	      9.02658241	    -15.37693634	      0.00000000	     -9.58567179	     -7.37889886	     -3.87440789
      4.96500000	     -0.58450032	      6.57381874	     -1.87950341	      0.46207953	      1.03194881	     -0.21480903	     21.11398330	    -10.44203265	     -8.73477507	    -65.85851914	     11.11184242	      2.14102280	      0.00000000	      0.56970044	     11.06298814	      3.51197519	     -6.14009653	      8.89612394	    -15.65752220	      0.00000000	     -9.68372791	     -7.07914677	     -4.08844818
      4.97000000	     -0.50098708	      6.37114122	     -1.74559006	      0.46804381	      1.03235748	     -0.21523857	     21.46188681	    -10.13162241	     -8.92180094	    -65.14881091	     11.88877240	      2.49667388	      0.00000000	     -0.19727555	     10.87368404	      3.87990800	     -5.57561131	      8.77754137	    -15.91095557	      0.00000000	     -9.77186394	     -6.78957457	     -4.29820231
      4.97500000	     -0.42777862	      6.17187702	     -1.61356595	      0.47395849	      1.03272188	     -0.21560284	     21.80154162	     -9.80811574	     -9.08493161	    -64.36537316	     12.65196231	      2.86465202	      0.00000000	     -0.94518113	     10.67590896	      4.21531203	     -5.01737261	      8.65087288	    -16.12602710	      0.00000000	     -9.85428053	     -6.51266821	     -4.48972333
      4.98000000	     -0.36333115	      5.97844664	     -1.48902501	      0.47987169	      1.03302278	     -0.21593867	     22.13128392	     -9.48121204	     -9.22678702	    -63.51370948	     13.38904565	      3.24362347	      0.00000000	     -1.68301749	     10.47706192	      4.51477405	     -4.45529238	      8.53386478	    -16.31342750	      0.00000000	     -9.92454874	     -6.24506902	     -4.67475609
